<svg width="1098" height="385" viewBox="0 0 1098 385" fill="none" xmlns="http://www.w3.org/2000/svg">
<path d="M32 273.5V34.4142C32 33.5233 33.0771 33.0771 33.7071 33.7071L187.5 187.5" stroke="white" stroke-width="64" stroke-linecap="round"/>
<path d="M353.5 351V34.4142C353.5 33.5233 352.423 33.0771 351.793 33.7071L198 187.5" stroke="white" stroke-width="64" stroke-linecap="round"/>
<path d="M32 32L353 353" stroke="white" stroke-width="64" stroke-linecap="round"/>
<path d="M847.702 301.2C847.702 300.267 847.702 299.133 847.702 297.8C847.702 296.467 847.769 294.6 847.902 292.2C848.169 289.667 848.502 286.4 848.902 282.4C849.435 278.267 850.102 272.867 850.902 266.2L861.502 180.6H846.102C843.035 180.6 840.502 179.6 838.502 177.6C836.635 175.467 835.969 172.467 836.502 168.6L839.502 145.4L869.902 139.2L887.702 88C889.969 81.6 894.502 78.4 901.302 78.4H934.902L927.302 139.6H994.702L1012.5 88C1014.77 81.6 1019.3 78.4 1026.1 78.4H1059.7L1052.1 139.6H1097.9L1092.5 180.6H1047.1L1036.9 262.8C1036.24 268.267 1035.7 272.6 1035.3 275.8C1034.9 278.867 1034.57 281.267 1034.3 283C1034.17 284.6 1034.1 285.733 1034.1 286.4C1034.1 286.933 1034.1 287.267 1034.1 287.4C1034.1 291.267 1034.97 294.533 1036.7 297.2C1038.57 299.733 1041.44 301 1045.3 301C1047.44 301 1049.17 300.8 1050.5 300.4C1051.97 299.867 1053.24 299.333 1054.3 298.8C1055.37 298.133 1056.37 297.6 1057.3 297.2C1058.24 296.667 1059.3 296.4 1060.5 296.4C1062.37 296.4 1063.77 296.867 1064.7 297.8C1065.64 298.6 1066.5 299.933 1067.3 301.8L1080.9 331.2C1072.64 337.2 1063.77 341.733 1054.3 344.8C1044.84 347.733 1035.3 349.2 1025.7 349.2C1017.7 349.2 1010.5 348.133 1004.1 346C997.702 343.733 992.169 340.533 987.502 336.4C982.969 332.133 979.369 327.067 976.702 321.2C974.169 315.333 972.769 308.667 972.502 301.2C972.502 300.267 972.502 299.133 972.502 297.8C972.502 296.467 972.569 294.6 972.702 292.2C972.969 289.667 973.302 286.4 973.702 282.4C974.235 278.267 974.902 272.867 975.702 266.2L986.302 180.6H922.302L912.102 262.8C911.435 268.267 910.902 272.6 910.502 275.8C910.102 278.867 909.769 281.267 909.502 283C909.369 284.6 909.302 285.733 909.302 286.4C909.302 286.933 909.302 287.267 909.302 287.4C909.302 291.267 910.169 294.533 911.902 297.2C913.769 299.733 916.635 301 920.502 301C922.635 301 924.369 300.8 925.702 300.4C927.169 299.867 928.435 299.333 929.502 298.8C930.569 298.133 931.569 297.6 932.502 297.2C933.435 296.667 934.502 296.4 935.702 296.4C937.569 296.4 938.969 296.867 939.902 297.8C940.835 298.6 941.702 299.933 942.502 301.8L956.102 331.2C947.835 337.2 938.969 341.733 929.502 344.8C920.035 347.733 910.502 349.2 900.902 349.2C892.902 349.2 885.702 348.133 879.302 346C872.902 343.733 867.369 340.533 862.702 336.4C858.169 332.133 854.569 327.067 851.902 321.2C849.369 315.333 847.969 308.667 847.702 301.2Z" fill="white"/>
<path d="M744.389 177.6C734.123 177.6 725.123 181.733 717.389 190C709.656 198.133 703.923 209.333 700.189 223.6C712.989 221.6 723.389 219.467 731.389 217.2C739.389 214.933 745.589 212.533 749.989 210C754.389 207.333 757.323 204.533 758.789 201.6C760.389 198.667 761.189 195.467 761.189 192C761.189 188.533 759.856 185.267 757.189 182.2C754.523 179.133 750.256 177.6 744.389 177.6ZM812.789 307.6C805.456 314.8 798.256 321.067 791.189 326.4C784.256 331.6 777.056 335.933 769.589 339.4C762.256 342.733 754.389 345.2 745.989 346.8C737.723 348.4 728.656 349.2 718.789 349.2C706.523 349.2 695.256 347.133 684.989 343C674.723 338.733 665.856 332.8 658.389 325.2C651.056 317.467 645.323 308.2 641.189 297.4C637.189 286.6 635.189 274.6 635.189 261.4C635.189 250.333 636.389 239.533 638.789 229C641.323 218.467 644.856 208.6 649.389 199.4C654.056 190.067 659.723 181.533 666.389 173.8C673.056 165.933 680.523 159.2 688.789 153.6C697.189 148 706.323 143.667 716.189 140.6C726.189 137.4 736.789 135.8 747.989 135.8C759.056 135.8 768.856 137.4 777.389 140.6C786.056 143.8 793.323 148 799.189 153.2C805.056 158.267 809.523 164 812.589 170.4C815.656 176.8 817.189 183.2 817.189 189.6C817.189 199.067 815.323 207.733 811.589 215.6C807.856 223.333 801.323 230.267 791.989 236.4C782.789 242.533 770.323 247.733 754.589 252C738.989 256.267 719.323 259.6 695.589 262C695.856 276.133 698.923 286.467 704.789 293C710.789 299.533 719.589 302.8 731.189 302.8C736.656 302.8 741.389 302.333 745.389 301.4C749.389 300.467 752.856 299.267 755.789 297.8C758.856 296.333 761.589 294.8 763.989 293.2C766.389 291.6 768.656 290.067 770.789 288.6C773.056 287.133 775.389 285.933 777.789 285C780.189 284.067 782.923 283.6 785.989 283.6C787.989 283.6 789.923 284.133 791.789 285.2C793.656 286.133 795.323 287.4 796.789 289L812.789 307.6Z" fill="white"/>
<path d="M533.6 346L570 46.6H631.2L594.8 346H533.6Z" fill="white"/>
</svg>
